name analog
datacolumns 19
datarows 36
range 0.2885 0.306
endheader
time	ground_force_vx	ground_force_vy	ground_force_vz	ground_force_px	ground_force_py	ground_force_pz	l_ground_force_vx	l_ground_force_vy	l_ground_force_vz	l_ground_force_px	l_ground_force_py	l_ground_force_pz	ground_torque_x	ground_torque_y	ground_torque_z	l_ground_torque_x	l_ground_torque_y	l_ground_torque_z
0.2885	-0.0	-0.0	-0.0	-4.156269073486328	-4.1997599601745605	-465.5940246582031	3.779533863067627	-3.555363893508911	-158.30355834960938	-0.0	-0.0	-0.0	-0.0	-0.0	-0.0	56758.47265625	-4886.26171875	-356.262451171875
0.289	-0.0	-0.0	-0.0	-4.2768635749816895	-3.654346466064453	-465.200439453125	3.554569721221924	-3.627300500869751	-158.83982849121094	-0.0	-0.0	-0.0	-0.0	-0.0	-0.0	56788.9296875	-4711.76611328125	-273.5799560546875
0.2895	-0.0	-0.0	-0.0	-4.245142459869385	-3.743476867675781	-465.6173095703125	4.021357536315918	-3.609255075454712	-158.55966186523438	-0.0	-0.0	-0.0	-0.0	-0.0	-0.0	56545.578125	-4945.7412109375	-310.5312194824219
0.29	-0.0	-0.0	-0.0	-3.9773900508880615	-3.218715190887451	-466.0308532714844	3.980158567428589	-3.48576283454895	-158.02601623535156	-0.0	-0.0	-0.0	-0.0	-0.0	-0.0	56446.12109375	-4653.3896484375	-267.0084228515625
0.2905	-0.0	-0.0	-0.0	-3.840954065322876	-3.443764925003052	-465.2156372070313	3.8203649520874015	-3.267902374267578	-158.16567993164062	-0.0	-0.0	-0.0	-0.0	-0.0	-0.0	56399.13671875	-4607.85888671875	-354.0814819335937
0.291	-0.0	-0.0	-0.0	-3.5404629707336426	-3.213446617126465	-465.9738464355469	3.637142181396485	-3.4276509284973145	-157.14048767089844	-0.0	-0.0	-0.0	-0.0	-0.0	-0.0	56143.3828125	-4621.912109375	-429.3581848144531
0.2915	-0.0	-0.0	-0.0	-2.79843807220459	-3.799724578857422	-464.5804443359375	3.825718879699707	-2.920168876647949	-155.55801391601562	-0.0	-0.0	-0.0	-0.0	-0.0	-0.0	55893.6328125	-4546.32177734375	-401.2830505371094
0.292	-0.0	-0.0	-0.0	-3.1177706718444824	-3.438409805297852	-467.8141479492188	3.689744472503662	-3.008411169052124	-155.53622436523438	-0.0	-0.0	-0.0	-0.0	-0.0	-0.0	55525.14453125	-4619.25537109375	-425.5108947753906
0.2925	-0.0	-0.0	-0.0	-2.8034539222717285	-3.4381914138793945	-466.9567565917969	3.224561214447021	-2.483666181564331	-154.0390625	-0.0	-0.0	-0.0	-0.0	-0.0	-0.0	55231.20703125	-4607.35400390625	-509.7861328125
0.293	-0.0	-0.0	-0.0	-2.6295413970947266	-3.560882806777954	-467.0718994140625	3.428463697433472	-2.514559745788574	-153.07205200195312	-0.0	-0.0	-0.0	-0.0	-0.0	-0.0	54972.23046875	-4603.2705078125	-474.5769653320313
0.2935	-0.0	-0.0	-0.0	-2.97388219833374	-3.8242321014404297	-468.8049011230469	3.746230840682984	-2.202970027923584	-153.42205810546875	-0.0	-0.0	-0.0	-0.0	-0.0	-0.0	54597.94921875	-4517.3212890625	-455.1325378417969
0.294	-0.0	-0.0	-0.0	-2.982383966445923	-3.960140228271485	-469.142578125	3.4128572940826416	-2.389679193496704	-152.045654296875	-0.0	-0.0	-0.0	-0.0	-0.0	-0.0	54071.6640625	-4440.72705078125	-458.8109436035156
0.2945	-0.0	-0.0	-0.0	-3.0331573486328125	-3.623767375946045	-470.820556640625	3.6692380905151367	-1.9013574123382568	-149.93167114257812	-0.0	-0.0	-0.0	-0.0	-0.0	-0.0	53907.59765625	-4443.49560546875	-475.7775573730469
0.295	-0.0	-0.0	-0.0	-3.1146600246429443	-3.925588130950928	-471.5104675292969	3.632383346557617	-1.8177015781402588	-149.0690155029297	-0.0	-0.0	-0.0	-0.0	-0.0	-0.0	53520.69140625	-4268.068359375	-500.5756530761719
0.2955	-0.0	-0.0	-0.0	-3.7820136547088623	-4.27825927734375	-471.7240905761719	3.781905174255371	-1.585132122039795	-147.9117431640625	-0.0	-0.0	-0.0	-0.0	-0.0	-0.0	53232.40234375	-4321.3603515625	-402.0887756347656
0.296	-0.0	-0.0	-0.0	-3.347224473953247	-4.007210731506348	-471.3403625488281	3.366443157196045	-1.231956958770752	-147.15841674804688	-0.0	-0.0	-0.0	-0.0	-0.0	-0.0	52857.86328125	-4228.14404296875	-575.6039428710938
0.2965	-0.0	-0.0	-0.0	-3.878899812698364	-3.786286354064941	-473.4168395996094	3.581732273101806	-1.2784632444381714	-147.21090698242188	-0.0	-0.0	-0.0	-0.0	-0.0	-0.0	52360.30078125	-3897.68115234375	-605.1509399414062
0.297	-0.0	-0.0	-0.0	-3.878939390182495	-3.6937625408172607	-473.2747497558594	3.371009826660156	-1.0265100002288818	-145.44728088378906	-0.0	-0.0	-0.0	-0.0	-0.0	-0.0	51848.3984375	-3995.564208984375	-663.1256103515625
0.2975	-0.0	-0.0	-0.0	-3.6179609298706055	-3.713703870773315	-473.9935302734375	3.1471335887908936	-0.7444643974304199	-144.53224182128906	-0.0	-0.0	-0.0	-0.0	-0.0	-0.0	51476.9765625	-3764.42724609375	-736.7440185546875
0.298	-0.0	-0.0	-0.0	-3.793050765991211	-3.598562002182007	-475.197265625	3.066697835922241	-0.4878188073635101	-142.47006225585938	-0.0	-0.0	-0.0	-0.0	-0.0	-0.0	51068.19140625	-3636.303955078125	-828.5359497070312
0.2985	-0.0	-0.0	-0.0	-3.709975719451904	-3.648160457611084	-476.9511413574219	2.3991963863372803	-0.3190948367118835	-141.9537811279297	-0.0	-0.0	-0.0	-0.0	-0.0	-0.0	50750.77734375	-3526.527587890625	-961.786376953125
0.299	-0.0	-0.0	-0.0	-3.6546809673309326	-3.6053600311279297	-477.6700439453125	2.588053703308105	-0.2726516723632812	-141.22422790527344	-0.0	-0.0	-0.0	-0.0	-0.0	-0.0	50288.55078125	-3523.816650390625	-1019.7017211914062
0.2995	-0.0	-0.0	-0.0	-3.559809923171997	-3.200091600418091	-478.3765563964844	2.580174446105957	0.0460429601371288	-139.11459350585938	-0.0	-0.0	-0.0	-0.0	-0.0	-0.0	49973.75390625	-3517.16796875	-1038.9232177734375
0.3	-0.0	-0.0	-0.0	-3.603256940841675	-3.033222198486328	-479.8115234375	2.415482521057129	0.307282954454422	-138.78048706054688	-0.0	-0.0	-0.0	-0.0	-0.0	-0.0	49861.3984375	-3172.445068359375	-1081.560546875
0.3005	-0.0	-0.0	-0.0	-3.07643985748291	-2.7224416732788086	-481.87738037109375	2.299365997314453	0.5334717631340027	-138.44561767578125	-0.0	-0.0	-0.0	-0.0	-0.0	-0.0	49375.8359375	-3004.576904296875	-1023.4228515625
0.301	-0.0	-0.0	-0.0	-3.0382206439971924	-3.117034673690796	-483.3317565917969	2.618690252304077	0.3567158281803131	-136.867431640625	-0.0	-0.0	-0.0	-0.0	-0.0	-0.0	49091.50390625	-3220.120361328125	-1064.80078125
0.3015	-0.0	-0.0	-0.0	-2.4497101306915283	-3.201543092727661	-484.066162109375	2.48720121383667	0.7981799840927124	-136.35020446777344	-0.0	-0.0	-0.0	-0.0	-0.0	-0.0	48528.9296875	-3113.484130859375	-991.2221069335938
0.302	-0.0	-0.0	-0.0	-2.4886674880981445	-2.934389352798462	-486.3287963867188	2.30325984954834	0.9225682020187378	-134.0488739013672	-0.0	-0.0	-0.0	-0.0	-0.0	-0.0	48168.42578125	-3152.296142578125	-1004.5511474609376
0.3025	-0.0	-0.0	-0.0	-2.228068590164185	-3.121756076812744	-487.7501831054688	2.08936619758606	1.233408808708191	-132.83383178710938	-0.0	-0.0	-0.0	-0.0	-0.0	-0.0	47463.0625	-3078.266357421875	-1067.1456298828125
0.303	-0.0	-0.0	-0.0	-1.8257429599761963	-3.293731927871704	-488.9654541015625	2.300553321838379	1.4101964235305786	-130.37896728515625	-0.0	-0.0	-0.0	-0.0	-0.0	-0.0	46850.609375	-2866.572021484375	-1109.91162109375
0.3035	-0.0	-0.0	-0.0	-1.65137779712677	-3.1136691570281982	-490.5513916015625	2.3093628883361816	1.6781120300292969	-129.1634063720703	-0.0	-0.0	-0.0	-0.0	-0.0	-0.0	46666.7578125	-2830.638916015625	-1156.756591796875
0.304	-0.0	-0.0	-0.0	-1.829759120941162	-3.565216064453125	-492.1450500488281	1.685504913330078	1.8119902610778809	-128.99496459960938	-0.0	-0.0	-0.0	-0.0	-0.0	-0.0	46071.51953125	-2551.794677734375	-1169.601806640625
0.3045	-0.0	-0.0	-0.0	-1.6477818489074707	-3.3450002670288086	-494.4381103515625	1.8145830631256104	1.894945740699768	-128.85787963867188	-0.0	-0.0	-0.0	-0.0	-0.0	-0.0	45538.6953125	-2652.224365234375	-1288.16943359375
0.305	-0.0	-0.0	-0.0	-1.875048875808716	-3.437213897705078	-494.9720153808594	1.6398764848709106	2.1676836013793945	-125.8541259765625	-0.0	-0.0	-0.0	-0.0	-0.0	-0.0	45353.59375	-2584.86767578125	-1437.414794921875
0.3055	-0.0	-0.0	-0.0	-1.5180610418319702	-2.983646869659424	-498.5105590820313	1.4649285078048706	2.4682259559631348	-127.26103973388672	-0.0	-0.0	-0.0	-0.0	-0.0	-0.0	45138.296875	-2501.2724609375	-1378.1104736328125
0.306	-0.0	-0.0	-0.0	-1.823904275894165	-3.381347417831421	-498.3369140625	1.592149257659912	2.479943990707397	-124.7988510131836	-0.0	-0.0	-0.0	-0.0	-0.0	-0.0	44975.32421875	-2353.343017578125	-1437.3319091796875
